<svg id="Capa_1" data-name="Capa 1" xmlns="http://www.w3.org/2000/svg" xmlns:xlink="http://www.w3.org/1999/xlink" viewBox="0 0 130.31 130.31"><defs><style>.cls-1{fill:url(#Degradado_sin_nombre_2);}.cls-2{fill:url(#Degradado_sin_nombre_3);}.cls-3{fill:url(#Degradado_sin_nombre_5);}</style><linearGradient id="Degradado_sin_nombre_2" x1="26.84" y1="82.5" x2="135.19" y2="82.5" gradientUnits="userSpaceOnUse"><stop offset="0" stop-color="#f22178"/><stop offset="1" stop-color="#9d00d4"/></linearGradient><linearGradient id="Degradado_sin_nombre_3" x1="121.71" y1="106.01" x2="157.16" y2="106.01" gradientUnits="userSpaceOnUse"><stop offset="0" stop-color="#30dfb0"/><stop offset="1" stop-color="#10a4f9"/></linearGradient><linearGradient id="Degradado_sin_nombre_5" x1="96.16" y1="47.84" x2="157.16" y2="47.84" gradientUnits="userSpaceOnUse"><stop offset="0" stop-color="#f12e89"/><stop offset="1" stop-color="#fa6c16"/></linearGradient></defs><title>bar-logo3</title><path class="cls-1" d="M92.08,147.66A65.22,65.22,0,0,1,88,17.34V44.63a38,38,0,1,0,28,67.42l19.24,19.24a64.65,64.65,0,0,1-43.11,16.37" transform="translate(-26.84 -17.34)"/><path class="cls-2" d="M157.16,86.5a64.16,64.16,0,0,1-16.2,39l-19.25-19.25a37.5,37.5,0,0,0,8.16-19.78Z" transform="translate(-26.84 -17.34)"/><path class="cls-3" d="M157.16,78.34H129.87A38,38,0,0,0,96.16,44.63V17.34A65.17,65.17,0,0,1,157.16,78.34Z" transform="translate(-26.84 -17.34)"/></svg>