<svg id="bold" xmlns="http://www.w3.org/2000/svg" xmlns:xlink="http://www.w3.org/1999/xlink" viewBox="0 0 739.79 518.14"><defs><style>.cls-1{fill:url(#Degradado_sin_nombre_11);}.cls-2{fill:url(#Degradado_sin_nombre_12);}.cls-3{fill:url(#Degradado_sin_nombre_8);}.cls-4{fill:url(#Degradado_sin_nombre_9);}</style><linearGradient id="Degradado_sin_nombre_11" y1="256.46" x2="423.41" y2="256.46" gradientUnits="userSpaceOnUse"><stop offset="0" stop-color="#f12e89"/><stop offset="0.04" stop-color="#f2367b"/><stop offset="0.14" stop-color="#f5465c"/><stop offset="0.25" stop-color="#f75442"/><stop offset="0.38" stop-color="#f85f2f"/><stop offset="0.52" stop-color="#f96621"/><stop offset="0.69" stop-color="#fa6b18"/><stop offset="1" stop-color="#fa6c16"/></linearGradient><linearGradient id="Degradado_sin_nombre_12" x1="372.27" y1="348.59" x2="511.36" y2="348.59" gradientUnits="userSpaceOnUse"><stop offset="0" stop-color="#fa6c16"/><stop offset="1" stop-color="#f12e89"/></linearGradient><linearGradient id="Degradado_sin_nombre_8" x1="272" y1="120.32" x2="511.36" y2="120.32" xlink:href="#Degradado_sin_nombre_12"/><linearGradient id="Degradado_sin_nombre_9" x1="720.87" y1="326.16" x2="720.87" y2="326.16" gradientTransform="translate(492.44 320.02) rotate(180)" gradientUnits="userSpaceOnUse"><stop offset="0" stop-color="#30dfb0"/><stop offset="1" stop-color="#10a4f9"/></linearGradient></defs><title>bar-logo2</title><path class="cls-1" d="M422.09,450.47A253.55,253.55,0,0,1,260.92,512C117.34,514.66-1.07,397.65,0,254.05,1,120.45,104.69,11,235.86.92A3.77,3.77,0,0,1,240,4.73v99.61a3.8,3.8,0,0,1-3.31,3.78c-75.28,9.64-133.09,75.67-129.9,154.08,3.16,77.37,65.74,139.92,143.11,143a148.68,148.68,0,0,0,97.15-30.88,3.79,3.79,0,0,1,5,.34l70.23,70.23A3.79,3.79,0,0,1,422.09,450.47Z" transform="translate(228.43 6.14)"/><path class="cls-2" d="M511.36,272a251.61,251.61,0,0,1-63.57,153.17l-75.52-75.52a147,147,0,0,0,32-77.65Z" transform="translate(228.43 6.14)"/><path class="cls-3" d="M511.36,240H404.27A148.92,148.92,0,0,0,272,107.73V.64C400.43,8.32,503.68,111.57,511.36,240Z" transform="translate(228.43 6.14)"/><path class="cls-4" d="M-228.43-6.14h0" transform="translate(228.43 6.14)"/></svg>