<svg id="Capa_1" data-name="Capa 1" xmlns="http://www.w3.org/2000/svg" viewBox="0 0 36.12 26.46"><defs><style>.cls-1{fill:#fff;}</style></defs><title>fab-button-mail</title><path class="cls-1" d="M33.56,6.71h-27A4.56,4.56,0,0,0,2,11.27V28.6a4.56,4.56,0,0,0,4.56,4.56h27a4.56,4.56,0,0,0,4.56-4.56V11.27A4.56,4.56,0,0,0,33.56,6.71Zm-.72,2.94L20.06,19.52,7.28,9.65Zm.72,20.57h-27A1.63,1.63,0,0,1,4.94,28.6v-17l14.22,11a1.51,1.51,0,0,0,.9.31,1.49,1.49,0,0,0,.9-.31l14.22-11v17A1.63,1.63,0,0,1,33.56,30.22Z" transform="translate(-2 -6.71)"/></svg>