<svg id="Capa_1" data-name="Capa 1" xmlns="http://www.w3.org/2000/svg" xmlns:xlink="http://www.w3.org/1999/xlink" viewBox="0 0 170.34 253.62"><defs><style>.cls-1{fill:#232121;stroke:#000;stroke-miterlimit:10;stroke-width:4px;}.cls-2,.cls-3{isolation:isolate;}.cls-3{font-size:96.57px;fill:#070618;font-family:BebasKai, Bebas Kai;}.cls-4{letter-spacing:-0.01em;}.cls-5{letter-spacing:0em;}.cls-6{letter-spacing:-0.01em;}.cls-7{fill:url(#Degradado_sin_nombre_2);}.cls-8{fill:url(#Degradado_sin_nombre_3);}.cls-9{fill:url(#Degradado_sin_nombre_5);}</style><linearGradient id="Degradado_sin_nombre_2" x1="29.95" y1="99.45" x2="138.29" y2="99.45" gradientUnits="userSpaceOnUse"><stop offset="0" stop-color="#f22178"/><stop offset="1" stop-color="#9d00d4"/></linearGradient><linearGradient id="Degradado_sin_nombre_3" x1="124.81" y1="122.96" x2="160.26" y2="122.96" gradientUnits="userSpaceOnUse"><stop offset="0" stop-color="#30dfb0"/><stop offset="1" stop-color="#10a4f9"/></linearGradient><linearGradient id="Degradado_sin_nombre_5" x1="99.26" y1="64.79" x2="160.26" y2="64.79" gradientUnits="userSpaceOnUse"><stop offset="0" stop-color="#f12e89"/><stop offset="1" stop-color="#fa6c16"/></linearGradient></defs><title>logo-white2</title><path class="cls-1" d="M158.83,185.78" transform="translate(-13.12 -34.29)"/><g class="cls-2"><text class="cls-3" transform="translate(0 233.92)">I <tspan class="cls-4" x="39.59" y="0">R</tspan><tspan class="cls-5" x="79.47" y="0" xml:space="preserve"> I</tspan><tspan class="cls-6" x="119.06" y="0" xml:space="preserve"> S</tspan></text><text class="cls-2" x="-13.12" y="-34.29"/></g><path class="cls-7" d="M95.18,164.61A65.22,65.22,0,0,1,91.11,34.29v27.3A38,38,0,1,0,119.05,129l19.24,19.24a64.65,64.65,0,0,1-43.11,16.37" transform="translate(-13.12 -34.29)"/><path class="cls-8" d="M160.26,103.45a64.16,64.16,0,0,1-16.2,39l-19.25-19.24A37.49,37.49,0,0,0,133,103.45Z" transform="translate(-13.12 -34.29)"/><path class="cls-9" d="M160.26,95.29H133a37.94,37.94,0,0,0-33.71-33.7V34.29A65.17,65.17,0,0,1,160.26,95.29Z" transform="translate(-13.12 -34.29)"/></svg>