<svg id="Capa_1" data-name="Capa 1" xmlns="http://www.w3.org/2000/svg" xmlns:xlink="http://www.w3.org/1999/xlink" viewBox="0 0 186.14 283.29"><defs><style>.cls-1{fill:#232121;stroke:#000;stroke-miterlimit:10;stroke-width:4px;}.cls-2{fill:url(#Degradado_sin_nombre);}.cls-3{fill:url(#Degradado_sin_nombre_2);}.cls-4{fill:url(#Degradado_sin_nombre_3);}.cls-5,.cls-6{isolation:isolate;}.cls-6{font-size:96.57px;fill:#070618;font-family:BebasKai, Bebas Kai;}.cls-7{letter-spacing:-0.01em;}.cls-8{letter-spacing:0em;}.cls-9{letter-spacing:-0.01em;}</style><linearGradient id="Degradado_sin_nombre" x1="49.38" y1="364.56" x2="49.38" y2="491.14" gradientTransform="matrix(1, 0, 0, -1, -24.62, 495.76)" gradientUnits="userSpaceOnUse"><stop offset="0" stop-color="#f12e89"/><stop offset="1" stop-color="#fa6c16"/></linearGradient><linearGradient id="Degradado_sin_nombre_2" x1="122.76" y1="343.41" x2="122.76" y2="441.55" gradientTransform="matrix(1, 0, 0, -1, -24.62, 495.76)" gradientUnits="userSpaceOnUse"><stop offset="0" stop-color="#f22178"/><stop offset="1" stop-color="#9d00d4"/></linearGradient><linearGradient id="Degradado_sin_nombre_3" x1="196.24" y1="324.88" x2="196.24" y2="403.39" gradientTransform="matrix(1, 0, 0, -1, -24.62, 495.76)" gradientUnits="userSpaceOnUse"><stop offset="0" stop-color="#30dfb0"/><stop offset="1" stop-color="#10a4f9"/></linearGradient></defs><title>logo-white</title><path class="cls-1" d="M158.83,185.78" transform="translate(-5.12 -4.62)"/><path class="cls-2" d="M24.76,4.62h0A19.64,19.64,0,0,1,44.4,24.26v87.3A19.64,19.64,0,0,1,24.76,131.2h0A19.64,19.64,0,0,1,5.12,111.56V24.26A19.64,19.64,0,0,1,24.76,4.62Z" transform="translate(-5.12 -4.62)"/><path class="cls-3" d="M98.14,54.21h0a19.64,19.64,0,0,1,19.64,19.64v58.86a19.64,19.64,0,0,1-19.64,19.64h0A19.64,19.64,0,0,1,78.5,132.71V73.85A19.64,19.64,0,0,1,98.14,54.21Z" transform="translate(-5.12 -4.62)"/><path class="cls-4" d="M171.62,92.37h0A19.64,19.64,0,0,1,191.26,112v39.23a19.64,19.64,0,0,1-19.64,19.64h0A19.64,19.64,0,0,1,152,151.24V112A19.64,19.64,0,0,1,171.62,92.37Z" transform="translate(-5.12 -4.62)"/><g class="cls-5"><text class="cls-6" transform="translate(8 263.59)">I <tspan class="cls-7" x="39.59" y="0">R</tspan><tspan class="cls-8" x="79.47" y="0" xml:space="preserve"> I</tspan><tspan class="cls-9" x="119.06" y="0" xml:space="preserve"> S</tspan></text><text class="cls-5" x="-5.12" y="-4.62"/></g></svg>