<svg id="Capa_1" data-name="Capa 1" xmlns="http://www.w3.org/2000/svg" viewBox="0 0 406.07 364.39"><defs><style>.cls-1{fill:#38a7eb;}.cls-2,.cls-4{opacity:0.1;}.cls-2,.cls-4,.cls-5{isolation:isolate;}.cls-3{fill:#407bff;}.cls-4,.cls-5{fill:#263238;}.cls-5{opacity:0.2;}.cls-6{fill:#fff;}.cls-7{fill:#e0e0e0;}.cls-8{fill:#f0f0f0;}</style></defs><title>mail</title><g id="freepik--Envelope--inject-208"><path class="cls-1" d="M37.7,445.37" transform="translate(-46.96 -67.81)"/><path class="cls-2" d="M37.7,445.37" transform="translate(-46.96 -67.81)"/><path class="cls-1" d="M37.71,445.37" transform="translate(-46.96 -67.81)"/></g><g id="freepik--Envelope--inject-208-2" data-name="freepik--Envelope--inject-208"><rect class="cls-3" x="49.14" y="189.35" width="401.71" height="239.14" transform="translate(-52.65 -63.12) rotate(-1.06)"/><rect class="cls-2" x="49.14" y="189.35" width="401.71" height="239.14" transform="translate(-52.65 -63.12) rotate(-1.06)"/><polygon class="cls-4" points="203.25 251.98 0 125.28 401.64 117.83 203.25 251.98"/><path class="cls-3" d="M220.57,75.71,47,193.09l401.63-7.45L270.76,74.79A46.09,46.09,0,0,0,220.57,75.71Z" transform="translate(-46.96 -67.81)"/><path class="cls-5" d="M433.68,185.92l-169-105.33a34.73,34.73,0,0,0-37.85.69L61.87,192.8Z" transform="translate(-46.96 -67.81)"/><polygon class="cls-6" points="313.31 109.49 366.15 128.09 366.41 141.65 203.25 251.98 36.09 147.78 35.58 120.67 313.31 109.49"/><polyline class="cls-7" points="313.31 109.49 321.32 138.53 366.15 128.09"/><polyline class="cls-8" points="313.31 109.49 316.75 133.2 366.15 128.09"/><path class="cls-3" d="M284,296.87,453,424.75,51.4,432.19,215.55,298.13A55.43,55.43,0,0,1,284,296.87Z" transform="translate(-46.96 -67.81)"/></g></svg>