<svg xmlns="http://www.w3.org/2000/svg" viewBox="0 0 500 500"><defs><style>.cls-1,.cls-5,.cls-6,.cls-7{isolation:isolate;}.cls-2,.cls-8{fill:#fff;}.cls-2{opacity:0.18;}.cls-3{opacity:0.46;mix-blend-mode:soft-light;}.cls-4{fill:#f0f1f3;}.cls-5,.cls-6{opacity:0.1;}.cls-6,.cls-7{fill:#263238;}.cls-7{opacity:0.2;}.cls-9{fill:#e0e0e0;}.cls-10{fill:#f0f0f0;}</style></defs><title>mail-background</title><g class="cls-1"><g id="Capa_1" data-name="Capa 1"><rect class="cls-2" width="500" height="500"/><g id="freepik--Envelope--inject-51" class="cls-3"><rect class="cls-4" x="400.02" y="200.48" width="1" height="13.5" transform="translate(-17.99 39.27) rotate(-5.49)"/><rect class="cls-4" x="401.4" y="218.61" width="1" height="5.45" transform="translate(-19.33 39.47) rotate(-5.49)"/><rect class="cls-4" x="154.91" y="176.98" width="246.19" height="146.56" transform="translate(-22.67 27.75) rotate(-5.49)"/><rect class="cls-5" x="154.91" y="176.98" width="246.19" height="146.56" transform="translate(-22.67 27.75) rotate(-5.49)"/><polygon class="cls-6" points="278.64 256.89 148.47 189.09 393.52 165.53 278.64 256.89"/><path class="cls-4" d="M249,109.16,148.47,189.09l245.05-23.56L279.61,106.22A28.21,28.21,0,0,0,249,109.16Z" transform="translate(0)"/><path class="cls-7" d="M384.42,166.41,276.19,110.05a21.31,21.31,0,0,0-23.1,2.21l-95.53,76Z" transform="translate(0)"/><polygon class="cls-8" points="339.16 164.62 372.32 173.48 373.12 181.75 278.64 256.89 171.58 201.13 169.99 184.59 339.16 164.62"/><polyline class="cls-9" points="339.16 164.62 345.43 181.98 372.32 173.48"/><polyline class="cls-10" points="339.16 164.62 342.38 178.94 372.32 173.48"/><path class="cls-4" d="M298.22,241.29l109.32,70.14L162.49,335l93.95-89.68A34,34,0,0,1,298.22,241.29Z" transform="translate(0)"/></g></g></g></svg>