<svg xmlns="http://www.w3.org/2000/svg" viewBox="0 0 500 500"><g id="freepik--Data--inject-59"><rect x="72.48" y="330.48" width="23.8" height="35.41" rx="4.26" style="fill:#BCBFC0"></rect><rect x="100.09" y="311.63" width="23.8" height="54.25" rx="4.26" style="fill:#BCBFC0"></rect><rect x="127.69" y="319.81" width="23.8" height="46.08" rx="4.26" style="fill:#BCBFC0"></rect><rect x="155.29" y="308.14" width="23.8" height="57.75" rx="4.26" style="fill:#BCBFC0"></rect><rect x="182.89" y="295.81" width="23.8" height="70.08" rx="4.26" style="fill:#BCBFC0"></rect><rect x="210.5" y="282.81" width="23.8" height="83.08" rx="4.26" style="fill:#BCBFC0"></rect><rect x="238.1" y="302.48" width="23.8" height="63.41" rx="4.26" style="fill:#BCBFC0"></rect><rect x="265.7" y="277.14" width="23.8" height="88.75" rx="4.26" style="fill:#BCBFC0"></rect><rect x="293.3" y="269.48" width="23.8" height="96.41" rx="4.26" style="fill:#BCBFC0"></rect><rect x="320.91" y="274.14" width="23.8" height="91.75" rx="4.26" style="fill:#BCBFC0"></rect><rect x="348.51" y="246.86" width="23.8" height="119.03" rx="4.26" style="fill:#BCBFC0"></rect><rect x="376.11" y="258.19" width="23.8" height="107.7" rx="4.26" style="fill:#BCBFC0"></rect><rect x="403.71" y="230.58" width="23.8" height="135.31" rx="4.26" style="fill:#BCBFC0"></rect><path d="M84.39,346.25A.52.52,0,0,1,84,346a.51.51,0,0,1,.11-.7l1.21-.88a.51.51,0,0,1,.7.11.49.49,0,0,1-.11.7l-1.21.88A.53.53,0,0,1,84.39,346.25Z" style="fill:#263238"></path><path d="M89.66,342.41a.49.49,0,0,1-.41-.21.51.51,0,0,1,.11-.7l2.44-1.77a.5.5,0,1,1,.59.81L90,342.31A.46.46,0,0,1,89.66,342.41Zm6.49-4.73a.49.49,0,0,1-.4-.21.5.5,0,0,1,.11-.69L98.3,335a.5.5,0,0,1,.69.11.49.49,0,0,1-.11.7l-2.43,1.77A.47.47,0,0,1,96.15,337.68Zm6.5-4.73a.53.53,0,0,1-.41-.2.51.51,0,0,1,.11-.7l2.44-1.78a.5.5,0,1,1,.59.81l-2.44,1.78A.52.52,0,0,1,102.65,333Zm6.49-4.73a.5.5,0,0,1-.29-.9l2.44-1.77a.49.49,0,1,1,.58.8l-2.43,1.78A.53.53,0,0,1,109.14,328.22Zm6.5-4.72a.52.52,0,0,1-.41-.21.5.5,0,0,1,.12-.7l2.43-1.77a.5.5,0,1,1,.59.81l-2.44,1.77A.53.53,0,0,1,115.64,323.5Zm6.5-4.73a.49.49,0,0,1-.41-.21.51.51,0,0,1,.11-.7l2.44-1.77a.5.5,0,0,1,.69.11.49.49,0,0,1-.11.7l-2.43,1.77A.46.46,0,0,1,122.14,318.77Zm6.49-4.73a.48.48,0,0,1-.4-.21.49.49,0,0,1,.11-.7l2.43-1.77a.5.5,0,0,1,.59.81l-2.44,1.77A.45.45,0,0,1,128.63,314Zm6.5-4.73a.5.5,0,0,1-.3-.9l2.44-1.78a.5.5,0,0,1,.59.81l-2.44,1.77A.46.46,0,0,1,135.13,309.31Zm6.49-4.73a.5.5,0,0,1-.29-.9l2.43-1.77a.49.49,0,0,1,.7.11.5.5,0,0,1-.11.69l-2.44,1.78A.5.5,0,0,1,141.62,304.58Zm6.5-4.73a.5.5,0,0,1-.3-.9l2.44-1.77a.49.49,0,0,1,.7.11.51.51,0,0,1-.11.7l-2.44,1.77A.52.52,0,0,1,148.12,299.85Zm6.49-4.72a.5.5,0,0,1-.4-.21.49.49,0,0,1,.11-.7l2.43-1.77a.5.5,0,0,1,.7.11.51.51,0,0,1-.11.7L154.91,295A.57.57,0,0,1,154.61,295.13Zm6.5-4.73a.49.49,0,0,1-.41-.21.51.51,0,0,1,.11-.7l2.44-1.77a.5.5,0,0,1,.59.81l-2.44,1.77A.46.46,0,0,1,161.11,290.4Zm6.49-4.73a.49.49,0,0,1-.4-.21.48.48,0,0,1,.11-.69l2.43-1.78a.5.5,0,0,1,.59.81l-2.43,1.77A.49.49,0,0,1,167.6,285.67Zm6.5-4.73a.51.51,0,0,1-.41-.2.51.51,0,0,1,.11-.7l2.44-1.78a.5.5,0,0,1,.59.81l-2.44,1.78A.52.52,0,0,1,174.1,280.94Zm6.49-4.73a.51.51,0,0,1-.4-.2.5.5,0,0,1,.11-.7l2.43-1.77a.5.5,0,1,1,.59.8l-2.43,1.78A.55.55,0,0,1,180.59,276.21Zm6.5-4.72a.52.52,0,0,1-.41-.21.51.51,0,0,1,.11-.7l2.44-1.77a.5.5,0,0,1,.7.11.51.51,0,0,1-.11.7l-2.44,1.77A.53.53,0,0,1,187.09,271.49Z" style="fill:#263238"></path><path d="M193.58,266.76a.52.52,0,0,1-.4-.21.5.5,0,0,1,.11-.7l1.21-.88a.49.49,0,0,1,.42-.08l1.45.37a.5.5,0,1,1-.25,1l-1.22-.31-1,.74A.54.54,0,0,1,193.58,266.76Z" style="fill:#263238"></path><path d="M305.16,294.36h-.08l-2.84-.73a.5.5,0,1,1,.25-1l2.76.71a.5.5,0,0,1,.42.24.46.46,0,0,1-.15.66A.84.84,0,0,1,305.16,294.36Zm-7.66-2-.13,0-2.92-.75a.5.5,0,1,1,.25-1l2.92.75a.5.5,0,0,1-.12,1Zm12.14-.55a.49.49,0,0,1-.44-.26.51.51,0,0,1,.19-.68l2.61-1.5a.51.51,0,0,1,.69.19.5.5,0,0,1-.19.68l-2.61,1.5A.59.59,0,0,1,309.64,291.83Zm-19.93-1.46-.13,0-2.92-.75a.5.5,0,1,1,.25-1l2.92.75a.5.5,0,0,1-.12,1Zm-7.79-2-.13,0-2.92-.75a.51.51,0,0,1-.36-.61.5.5,0,0,1,.61-.36l2.92.75a.5.5,0,0,1-.12,1Zm34.7-.53a.49.49,0,0,1-.44-.26.5.5,0,0,1,.19-.68l2.61-1.5a.5.5,0,0,1,.69.19.51.51,0,0,1-.19.68l-2.62,1.5A.51.51,0,0,1,316.62,287.83Zm-42.49-1.48-.12,0-2.92-.75a.5.5,0,0,1-.36-.61.49.49,0,0,1,.61-.36l2.92.75a.5.5,0,0,1-.13,1Zm-7.79-2-.12,0-2.92-.75a.5.5,0,1,1,.25-1l2.92.75a.5.5,0,0,1-.13,1Zm57.25-.51a.49.49,0,0,1-.43-.26.5.5,0,0,1,.18-.68l2.62-1.5a.49.49,0,0,1,.68.19.49.49,0,0,1-.18.68l-2.62,1.5A.55.55,0,0,1,323.59,283.83Zm-65-1.5-.12,0-2.92-.75a.5.5,0,0,1,.25-1l2.92.75a.5.5,0,0,1-.13,1Zm-7.78-2-.13,0-2.92-.75a.5.5,0,0,1,.25-1l2.92.75a.5.5,0,0,1-.12,1Zm79.8-.49a.49.49,0,0,1-.43-.26.49.49,0,0,1,.18-.68l2.62-1.5a.49.49,0,0,1,.68.19.49.49,0,0,1-.18.68l-2.62,1.5A.55.55,0,0,1,330.57,279.83ZM243,278.31l-.13,0-2.92-.75a.5.5,0,1,1,.25-1l2.92.75a.5.5,0,0,1-.12,1Zm-7.79-2-.13,0-2.92-.75a.51.51,0,0,1-.36-.61.5.5,0,0,1,.61-.36l2.92.75a.5.5,0,0,1-.12,1Zm102.36-.47a.49.49,0,0,1-.43-.26.49.49,0,0,1,.18-.68l2.62-1.5a.49.49,0,0,1,.68.19.49.49,0,0,1-.18.68l-2.62,1.5A.55.55,0,0,1,337.55,275.83ZM227.4,274.29l-.12,0-2.93-.75a.5.5,0,0,1-.35-.61.49.49,0,0,1,.6-.36l2.93.75a.5.5,0,0,1-.13,1Zm-7.79-2-.12,0-2.92-.75a.5.5,0,0,1,.25-1l2.92.75a.5.5,0,0,1-.13,1Zm124.92-.45a.49.49,0,0,1-.43-.26.49.49,0,0,1,.18-.68l2.62-1.5a.5.5,0,1,1,.49.87l-2.61,1.5A.59.59,0,0,1,344.53,271.83Zm-132.71-1.56-.12,0-2.92-.75a.5.5,0,1,1,.25-1l2.92.75a.5.5,0,0,1-.13,1Zm-7.78-2-.13,0-2.92-.75a.5.5,0,1,1,.25-1l2.92.75a.5.5,0,0,1-.12,1Zm147.47-.43a.49.49,0,0,1-.44-.26.51.51,0,0,1,.19-.68l2.62-1.5a.49.49,0,0,1,.68.19.5.5,0,0,1-.19.68l-2.61,1.5A.59.59,0,0,1,351.51,267.83Zm7-4a.49.49,0,0,1-.44-.26.5.5,0,0,1,.19-.68l2.61-1.5a.5.5,0,1,1,.5.87l-2.62,1.5A.51.51,0,0,1,358.49,263.83Zm7-4a.49.49,0,0,1-.43-.26.5.5,0,0,1,.18-.68l2.62-1.5a.49.49,0,0,1,.68.19.49.49,0,0,1-.18.68l-2.62,1.5A.55.55,0,0,1,365.46,259.83Zm7-4a.49.49,0,0,1-.43-.26.49.49,0,0,1,.18-.68l2.62-1.5a.49.49,0,0,1,.68.19.49.49,0,0,1-.18.68l-2.62,1.5A.55.55,0,0,1,372.44,255.83Zm7-4a.49.49,0,0,1-.43-.26.49.49,0,0,1,.18-.68l2.62-1.5a.5.5,0,0,1,.5.87l-2.62,1.5A.55.55,0,0,1,379.42,251.83Zm7-4a.49.49,0,0,1-.43-.26.49.49,0,0,1,.18-.68l2.62-1.5a.5.5,0,1,1,.49.87l-2.61,1.5A.59.59,0,0,1,386.4,247.83Zm7-4a.5.5,0,0,1-.44-.26.51.51,0,0,1,.19-.68l2.62-1.5a.49.49,0,0,1,.68.19.5.5,0,0,1-.19.68l-2.61,1.5A.59.59,0,0,1,393.38,243.83Zm7-4a.49.49,0,0,1-.44-.26.5.5,0,0,1,.19-.68l2.61-1.5a.5.5,0,0,1,.69.19.51.51,0,0,1-.19.68l-2.62,1.5A.51.51,0,0,1,400.36,239.83Zm7-4a.49.49,0,0,1-.43-.26.5.5,0,0,1,.19-.68l2.61-1.5a.49.49,0,0,1,.68.19.49.49,0,0,1-.18.68l-2.62,1.5A.55.55,0,0,1,407.33,235.83Z" style="fill:#263238"></path><path d="M414.31,231.83a.49.49,0,0,1-.43-.26.49.49,0,0,1,.18-.68l1.31-.74a.49.49,0,1,1,.49.86l-1.3.75A.55.55,0,0,1,414.31,231.83Z" style="fill:#263238"></path><path d="M88.49,345.75a4.11,4.11,0,1,1-4.1-4.11A4.11,4.11,0,0,1,88.49,345.75Z" style="fill:#fff"></path><path d="M84.39,350.35a4.61,4.61,0,1,1,4.6-4.6A4.62,4.62,0,0,1,84.39,350.35Zm0-8.21a3.61,3.61,0,1,0,3.6,3.61A3.61,3.61,0,0,0,84.39,342.14Z" style="fill:#263238"></path><circle cx="194.8" cy="265.37" r="4.1" style="fill:#fff"></circle><path d="M194.8,270a4.61,4.61,0,1,1,4.6-4.61A4.62,4.62,0,0,1,194.8,270Zm0-8.21a3.61,3.61,0,1,0,3.6,3.6A3.61,3.61,0,0,0,194.8,261.77Z" style="fill:#263238"></path><circle cx="305.2" cy="293.87" r="4.1" style="fill:#fff"></circle><path d="M305.21,298.47a4.61,4.61,0,1,1,4.6-4.6A4.62,4.62,0,0,1,305.21,298.47Zm0-8.21a3.61,3.61,0,1,0,3.6,3.61A3.61,3.61,0,0,0,305.21,290.26Z" style="fill:#263238"></path><circle cx="415.61" cy="230.58" r="4.1" style="fill:#fff"></circle><path d="M415.61,235.18a4.6,4.6,0,1,1,4.61-4.6A4.61,4.61,0,0,1,415.61,235.18Zm0-8.2a3.6,3.6,0,1,0,3.61,3.6A3.6,3.6,0,0,0,415.61,227Z" style="fill:#263238"></path></g></svg>